<svg width="32" height="32" viewBox="0 0 32 32" fill="none" xmlns="http://www.w3.org/2000/svg">
<g clip-path="url(#clip0_0_13)">
<path d="M29.0558 24.938C28.5891 26.0249 28.0128 27.0614 27.3358 28.0313C26.4305 29.3213 25.6898 30.214 25.1192 30.71C24.2345 31.5233 23.2858 31.9407 22.2705 31.964C21.5418 31.964 20.6632 31.7567 19.6398 31.336C18.6132 30.9173 17.6698 30.7093 16.8072 30.7093C15.9025 30.7093 14.9325 30.9173 13.8945 31.336C12.8552 31.7567 12.0178 31.976 11.3778 31.9973C10.4045 32.0393 9.43384 31.6107 8.4645 30.71C7.8465 30.17 7.07384 29.246 6.14717 27.9367C5.15317 26.538 4.33584 24.9167 3.69584 23.0673C3.0105 21.0707 2.6665 19.1367 2.6665 17.2647C2.6665 15.12 3.12984 13.2707 4.05784 11.7207C4.78784 10.4753 5.75784 9.494 6.9725 8.77267C8.16416 8.05956 9.52386 7.67581 10.9125 7.66067C11.6858 7.66067 12.6998 7.9 13.9605 8.37C15.2172 8.84133 16.0238 9.08067 16.3778 9.08067C16.6418 9.08067 17.5385 8.80067 19.0578 8.24333C20.4952 7.726 21.7078 7.512 22.7012 7.59667C25.3938 7.814 27.4165 8.87533 28.7612 10.7873C26.3538 12.246 25.1625 14.2893 25.1865 16.9107C25.2078 18.9527 25.9485 20.652 27.4045 22.0007C28.0645 22.6273 28.8012 23.1113 29.6205 23.4547C29.4487 23.9552 29.2604 24.4499 29.0558 24.938ZM22.8812 0.640667C22.8812 2.24067 22.2965 3.73533 21.1312 5.118C19.7245 6.76267 18.0238 7.71267 16.1792 7.56267C16.1544 7.36139 16.1419 7.15879 16.1418 6.956C16.1418 5.42 16.8105 3.776 17.9985 2.43133C18.5918 1.75067 19.3452 1.18467 20.2598 0.733333C21.1732 0.288667 22.0358 0.0426667 22.8478 0C22.8712 0.214 22.8812 0.428 22.8812 0.64V0.640667Z" fill="white"/>
</g>
<defs>
<clipPath id="clip0_0_13">
<rect width="32" height="32" fill="white"/>
</clipPath>
</defs>
</svg>
