<svg width="24" height="24" viewBox="0 0 24 24" fill="none" xmlns="http://www.w3.org/2000/svg">
<path fill-rule="evenodd" clip-rule="evenodd" d="M3.37181 7.63241C5.14657 5.59473 7.96115 3.5 11.9999 3.5C16.0386 3.5 18.8532 5.59473 20.6279 7.63241C21.5155 8.65143 22.1543 9.66753 22.5715 10.4284C22.7806 10.8097 22.9353 11.1291 23.0387 11.3557C23.0904 11.4691 23.1294 11.5594 23.156 11.6229C23.1693 11.6547 23.1795 11.6797 23.1867 11.6976L23.1953 11.719L23.1978 11.7255L23.1987 11.7277C23.1988 11.7281 23.1993 11.7293 22.4999 12C23.1993 12.2707 23.1992 12.2711 23.199 12.2714L23.1978 12.2745L23.1953 12.281L23.1867 12.3024C23.1795 12.3203 23.1693 12.3453 23.156 12.3771C23.1294 12.4406 23.0904 12.5309 23.0387 12.6443C22.9353 12.8709 22.7806 13.1903 22.5715 13.5716C22.1543 14.3325 21.5155 15.3486 20.6279 16.3676C18.8532 18.4053 16.0386 20.5 11.9999 20.5C7.96115 20.5 5.14657 18.4053 3.37181 16.3676C2.48428 15.3486 1.84547 14.3325 1.4282 13.5716C1.21913 13.1903 1.06448 12.8709 0.961083 12.6443C0.909357 12.5309 0.870375 12.4406 0.843748 12.3771C0.830432 12.3453 0.820199 12.3203 0.813 12.3024L0.804468 12.281L0.801895 12.2745L0.80103 12.2723C0.800896 12.2719 0.800445 12.2707 1.49987 12C0.800445 11.7293 0.800568 11.7289 0.800703 11.7286L0.801895 11.7255L0.804468 11.719L0.813 11.6976C0.820199 11.6797 0.830432 11.6547 0.843748 11.6229C0.870375 11.5594 0.909357 11.4691 0.961083 11.3557C1.06448 11.1291 1.21913 10.8097 1.4282 10.4284C1.84547 9.66753 2.48428 8.65143 3.37181 7.63241ZM1.49987 12L0.800703 11.7286C0.733271 11.9028 0.733013 12.0965 0.800445 12.2707L1.49987 12ZM2.3159 12C2.31912 12.0071 2.32241 12.0143 2.32577 12.0217C2.41573 12.2189 2.55405 12.505 2.74342 12.8503C3.12302 13.5425 3.70296 14.4639 4.50293 15.3824C6.10317 17.2197 8.53859 19 11.9999 19C15.4611 19 17.8966 17.2197 19.4968 15.3824C20.2968 14.4639 20.8767 13.5425 21.2563 12.8503C21.4457 12.505 21.584 12.2189 21.674 12.0217C21.6773 12.0143 21.6806 12.0071 21.6838 12C21.6806 11.9929 21.6773 11.9857 21.674 11.9783C21.584 11.7811 21.4457 11.495 21.2563 11.1497C20.8767 10.4575 20.2968 9.53607 19.4968 8.61759C17.8966 6.78027 15.4611 5 11.9999 5C8.53859 5 6.10317 6.78027 4.50293 8.61759C3.70296 9.53607 3.12302 10.4575 2.74342 11.1497C2.55405 11.495 2.41573 11.7811 2.32577 11.9783C2.32241 11.9857 2.31912 11.9929 2.3159 12ZM22.4999 12L23.199 12.2714C23.2665 12.0972 23.2667 11.9035 23.1993 11.7293L22.4999 12Z" fill="#191C1F"/>
<path fill-rule="evenodd" clip-rule="evenodd" d="M12 9.75C10.7574 9.75 9.75 10.7574 9.75 12C9.75 13.2426 10.7574 14.25 12 14.25C13.2426 14.25 14.25 13.2426 14.25 12C14.25 10.7574 13.2426 9.75 12 9.75ZM8.25 12C8.25 9.92893 9.92893 8.25 12 8.25C14.0711 8.25 15.75 9.92893 15.75 12C15.75 14.0711 14.0711 15.75 12 15.75C9.92893 15.75 8.25 14.0711 8.25 12Z" fill="#191C1F"/>
</svg>
