<svg width="41" height="34" viewBox="0 0 41 34" fill="none" xmlns="http://www.w3.org/2000/svg">
<path d="M32.4583 24.0833H8.54167C6.65737 24.0833 5.125 25.3541 5.125 26.9167C5.125 28.4792 6.65737 29.75 8.54167 29.75H32.4583C34.3426 29.75 35.875 28.4792 35.875 26.9167C35.875 25.3541 34.3426 24.0833 32.4583 24.0833ZM32.4583 14.1667H8.54167C6.65737 14.1667 5.125 15.4374 5.125 17C5.125 18.5626 6.65737 19.8333 8.54167 19.8333H32.4583C34.3426 19.8333 35.875 18.5626 35.875 17C35.875 15.4374 34.3426 14.1667 32.4583 14.1667ZM32.4583 4.25H8.54167C6.65737 4.25 5.125 5.52075 5.125 7.08333C5.125 8.64592 6.65737 9.91667 8.54167 9.91667H32.4583C34.3426 9.91667 35.875 8.64592 35.875 7.08333C35.875 5.52075 34.3426 4.25 32.4583 4.25Z" fill="#00A218"/>
</svg>
